<svg width="17" height="16" viewBox="0 0 17 16" fill="none" xmlns="http://www.w3.org/2000/svg">
<path d="M7.45816 1.19848C7.77942 0.209758 9.1782 0.209759 9.49945 1.19848L10.6473 4.73114C10.791 5.17331 11.203 5.47269 11.6679 5.47269H15.3824C16.422 5.47269 16.8542 6.80301 16.0132 7.41407L13.0081 9.59737C12.632 9.87065 12.4746 10.355 12.6183 10.7972L13.7661 14.3299C14.0874 15.3186 12.9557 16.1408 12.1147 15.5297L9.1096 13.3464C8.73347 13.0731 8.22415 13.0731 7.84801 13.3464L4.84295 15.5297C4.0019 16.1408 2.87026 15.3186 3.19151 14.3299L4.33935 10.7972C4.48302 10.355 4.32563 9.87065 3.94949 9.59737L0.944434 7.41407C0.103375 6.80301 0.535622 5.47269 1.57523 5.47269H5.28969C5.75461 5.47269 6.16666 5.17331 6.31033 4.73114L7.45816 1.19848Z" fill="#F59E0B"/>
</svg>
