<svg width="92" height="21" viewBox="0 0 92 21" fill="none" xmlns="http://www.w3.org/2000/svg">
<path d="M0.828604 0.700996H13.2721V3.01749H8.3726V16.076H5.6871V3.01749H0.808105L0.828604 0.700996ZM12.7391 4.94449H15.0351V7.09699H15.0761C15.1581 6.78949 15.3016 6.50249 15.5066 6.21549C15.7116 5.92849 15.9576 5.66199 16.2651 5.43649C16.5521 5.19049 16.8801 5.00599 17.2491 4.86249C17.5976 4.71899 17.9666 4.63699 18.3356 4.63699C18.6226 4.63699 18.8276 4.65749 18.9301 4.65749C19.0326 4.67799 19.1556 4.69849 19.2581 4.69849V7.05599C19.0941 7.01499 18.9096 6.99449 18.7251 6.97399C18.5406 6.95349 18.3766 6.93299 18.1921 6.93299C17.7821 6.93299 17.3926 7.01499 17.0236 7.17899C16.6546 7.34299 16.3471 7.58899 16.0601 7.89649C15.7936 8.22449 15.5681 8.61399 15.4041 9.08549C15.2401 9.55699 15.1581 10.1105 15.1581 10.7255V16.0145H12.6981L12.7391 4.94449ZM30.5331 16.076H28.1141V14.518H28.0731C27.7656 15.092 27.3146 15.5225 26.7201 15.871C26.1256 16.2195 25.5106 16.3835 24.8956 16.3835C23.4401 16.3835 22.3741 16.035 21.7181 15.297C21.0621 14.5795 20.7341 13.4725 20.7341 12.017V4.94449H23.1941V11.771C23.1941 12.755 23.3786 13.452 23.7681 13.8415C24.1371 14.2515 24.6701 14.4565 25.3466 14.4565C25.8591 14.4565 26.2896 14.3745 26.6381 14.2105C26.9866 14.0465 27.2736 13.8415 27.4786 13.575C27.7041 13.3085 27.8476 12.9805 27.9501 12.6115C28.0526 12.2425 28.0936 11.8325 28.0936 11.402V4.94449H30.5536V16.076H30.5331ZM34.7151 12.509C34.7971 13.2265 35.0636 13.7185 35.5351 14.026C36.0066 14.313 36.5806 14.4565 37.2366 14.4565C37.4621 14.4565 37.7286 14.436 38.0156 14.395C38.3026 14.354 38.5896 14.2925 38.8356 14.19C39.1021 14.0875 39.3071 13.944 39.4711 13.739C39.6351 13.534 39.7171 13.288 39.6966 12.9805C39.6761 12.673 39.5736 12.4065 39.3481 12.2015C39.1226 11.9965 38.8561 11.853 38.5281 11.7095C38.2001 11.5865 37.8106 11.484 37.3801 11.402C36.9496 11.32 36.5191 11.2175 36.0681 11.115C35.6171 11.0125 35.1661 10.8895 34.7356 10.746C34.3051 10.6025 33.9361 10.418 33.5876 10.1515C33.2596 9.90549 32.9726 9.59799 32.7881 9.20849C32.5831 8.81899 32.4806 8.36799 32.4806 7.79399C32.4806 7.17899 32.6241 6.68699 32.9316 6.27699C33.2186 5.86699 33.6081 5.53899 34.0591 5.29299C34.5101 5.04699 35.0226 4.86249 35.5761 4.75999C36.1296 4.65749 36.6626 4.61649 37.1546 4.61649C37.7286 4.61649 38.2821 4.67799 38.7946 4.80099C39.3071 4.924 39.7991 5.10849 40.2091 5.39549C40.6396 5.66199 40.9881 6.03099 41.2546 6.46149C41.5416 6.89199 41.7056 7.42499 41.7876 8.03999H39.2251C39.1021 7.44549 38.8356 7.05599 38.4256 6.85099C37.9951 6.64599 37.5236 6.54349 36.9701 6.54349C36.8061 6.54349 36.5806 6.56399 36.3551 6.58449C36.1091 6.62549 35.9041 6.66649 35.6786 6.74849C35.4736 6.83049 35.2891 6.95349 35.1456 7.09699C35.0021 7.24049 34.9201 7.44549 34.9201 7.69149C34.9201 7.99899 35.0226 8.22449 35.2276 8.40899C35.4326 8.59349 35.6991 8.73699 36.0476 8.88049C36.3756 9.00349 36.7651 9.10599 37.1956 9.18799C37.6261 9.26999 38.0771 9.37249 38.5281 9.47499C38.9791 9.57749 39.4096 9.70049 39.8401 9.84399C40.2706 9.98749 40.6601 10.172 40.9881 10.4385C41.3161 10.6845 41.6031 10.992 41.8081 11.361C42.0131 11.73 42.1156 12.2015 42.1156 12.7345C42.1156 13.3905 41.9721 13.944 41.6646 14.4155C41.3571 14.8665 40.9676 15.256 40.4961 15.543C40.0246 15.83 39.4711 16.035 38.8971 16.1785C38.3026 16.3015 37.7286 16.3835 37.1546 16.3835C36.4576 16.3835 35.8016 16.3015 35.2071 16.1375C34.6126 15.9735 34.0796 15.7275 33.6491 15.42C33.2186 15.092 32.8701 14.7025 32.6241 14.2105C32.3781 13.739 32.2346 13.165 32.2141 12.4885H34.6946V12.509H34.7151ZM42.8126 4.94449H44.6781V1.58249H47.1381V4.92399H49.3521V6.74849H47.1381V12.6935C47.1381 12.96 47.1586 13.165 47.1791 13.37C47.1996 13.5545 47.2611 13.7185 47.3226 13.8415C47.4046 13.9645 47.5276 14.067 47.6711 14.1285C47.8351 14.19 48.0401 14.231 48.3271 14.231C48.4911 14.231 48.6756 14.231 48.8396 14.2105C49.0036 14.19 49.1881 14.1695 49.3521 14.1285V16.035C49.0856 16.076 48.8191 16.0965 48.5526 16.117C48.2861 16.158 48.0401 16.158 47.7531 16.158C47.0971 16.158 46.5846 16.0965 46.1951 15.9735C45.8056 15.8505 45.4981 15.666 45.2726 15.4405C45.0471 15.1945 44.9036 14.9075 44.8216 14.559C44.7396 14.2105 44.6986 13.78 44.6781 13.329V6.76899H42.8126V4.90349V4.94449ZM51.0741 4.94449H53.3906V6.46149H53.4316C53.7801 5.80549 54.2516 5.35449 54.8666 5.06749C55.4816 4.78049 56.1376 4.63699 56.8756 4.63699C57.7571 4.63699 58.5156 4.78049 59.1716 5.10849C59.8276 5.41599 60.3606 5.82599 60.7911 6.37949C61.2216 6.91249 61.5496 7.54799 61.7546 8.26549C61.9596 8.98299 62.0826 9.76199 62.0826 10.5615C62.0826 11.32 61.9801 12.0375 61.7956 12.7345C61.5906 13.4315 61.3036 14.067 60.9141 14.6C60.5246 15.133 60.0326 15.5635 59.4176 15.8915C58.8026 16.2195 58.1056 16.3835 57.2856 16.3835C56.9371 16.3835 56.5681 16.3425 56.2196 16.281C55.8711 16.2195 55.5226 16.117 55.1946 15.9735C54.8666 15.83 54.5591 15.6455 54.2926 15.42C54.0056 15.1945 53.7801 14.928 53.5956 14.641H53.5546V20.1965H51.0946V4.94449H51.0741ZM59.6636 10.5205C59.6636 10.0285 59.6021 9.53649 59.4586 9.06499C59.3356 8.59349 59.1306 8.18349 58.8641 7.81449C58.5976 7.44549 58.2696 7.15849 57.9006 6.93299C57.5111 6.70749 57.0601 6.60499 56.5681 6.60499C55.5431 6.60499 54.7641 6.95349 54.2311 7.67099C53.7186 8.38849 53.4521 9.35199 53.4521 10.541C53.4521 11.115 53.5136 11.6275 53.6571 12.099C53.8006 12.5705 53.9851 12.9805 54.2721 13.329C54.5386 13.6775 54.8666 13.944 55.2561 14.149C55.6456 14.354 56.0761 14.4565 56.5886 14.4565C57.1626 14.4565 57.6136 14.3335 58.0031 14.108C58.3926 13.8825 58.7001 13.575 58.9666 13.2265C59.2126 12.8575 59.3971 12.4475 59.4996 11.976C59.6021 11.484 59.6636 11.0125 59.6636 10.5205ZM63.9891 0.700996H66.4491V3.01749H63.9891V0.700996ZM63.9891 4.94449H66.4491V16.076H63.9891V4.94449ZM68.6426 0.700996H71.1026V16.076H68.6426V0.700996ZM78.6056 16.3835C77.7241 16.3835 76.9246 16.24 76.2276 15.9325C75.5306 15.625 74.9566 15.2355 74.4646 14.723C73.9931 14.2105 73.6241 13.575 73.3781 12.8575C73.1321 12.14 72.9886 11.3405 72.9886 10.5C72.9886 9.65949 73.1116 8.88049 73.3781 8.16299C73.6241 7.44549 73.9931 6.83049 74.4646 6.29749C74.9361 5.78499 75.5306 5.37499 76.2276 5.08799C76.9246 4.80099 77.7241 4.63699 78.6056 4.63699C79.4871 4.63699 80.2866 4.78049 80.9836 5.08799C81.6806 5.37499 82.2546 5.78499 82.7466 6.29749C83.2181 6.80999 83.5871 7.44549 83.8331 8.16299C84.0791 8.88049 84.2226 9.65949 84.2226 10.5C84.2226 11.361 84.0996 12.14 83.8331 12.8575C83.5666 13.575 83.2181 14.19 82.7466 14.723C82.2751 15.2355 81.6806 15.6455 80.9836 15.9325C80.2866 16.2195 79.5076 16.3835 78.6056 16.3835ZM78.6056 14.436C79.1386 14.436 79.6306 14.313 80.0201 14.0875C80.4301 13.862 80.7376 13.5545 81.0041 13.1855C81.2706 12.8165 81.4551 12.386 81.5781 11.935C81.7011 11.4635 81.7626 10.992 81.7626 10.5C81.7626 10.0285 81.7011 9.55699 81.5781 9.08549C81.4551 8.61399 81.2706 8.20399 81.0041 7.83499C80.7376 7.46599 80.4096 7.17899 80.0201 6.95349C79.6101 6.72799 79.1386 6.60499 78.6056 6.60499C78.0726 6.60499 77.5806 6.72799 77.1911 6.95349C76.7811 7.17899 76.4736 7.48649 76.2071 7.83499C75.9406 8.20399 75.7561 8.61399 75.6331 9.08549C75.5101 9.55699 75.4486 10.0285 75.4486 10.5C75.4486 10.992 75.5101 11.4635 75.6331 11.935C75.7561 12.4065 75.9406 12.8165 76.2071 13.1855C76.4736 13.5545 76.8016 13.862 77.1911 14.0875C77.6011 14.3335 78.0726 14.436 78.6056 14.436ZM84.9606 4.94449H86.8261V1.58249H89.2861V4.92399H91.5001V6.74849H89.2861V12.6935C89.2861 12.96 89.3066 13.165 89.3271 13.37C89.3476 13.5545 89.4091 13.7185 89.4706 13.8415C89.5526 13.9645 89.6756 14.067 89.8191 14.1285C89.9831 14.19 90.1881 14.231 90.4751 14.231C90.6391 14.231 90.8236 14.231 90.9876 14.2105C91.1516 14.19 91.3361 14.1695 91.5001 14.1285V16.035C91.2336 16.076 90.9671 16.0965 90.7006 16.117C90.4341 16.158 90.1881 16.158 89.9011 16.158C89.2451 16.158 88.7326 16.0965 88.3431 15.9735C87.9536 15.8505 87.6461 15.666 87.4206 15.4405C87.1951 15.1945 87.0516 14.9075 86.9696 14.559C86.8876 14.2105 86.8466 13.78 86.8261 13.329V6.76899H84.9606V4.90349V4.94449Z" fill="black"/>
</svg>
